<svg width="65" height="65" viewBox="0 0 65 65" fill="none" xmlns="http://www.w3.org/2000/svg">
<rect x="0.348633" y="0.141113" width="64" height="64" rx="32" fill="#2162F0"/>
<path d="M26.9084 34.1007C28.7884 34.1007 30.2951 35.622 30.2951 37.5154V42.0607C30.2951 43.9407 28.7884 45.474 26.9084 45.474H22.4018C20.5351 45.474 19.0151 43.9407 19.0151 42.0607V37.5154C19.0151 35.622 20.5351 34.1007 22.4018 34.1007H26.9084ZM42.2952 34.1007C44.1619 34.1007 45.6819 35.622 45.6819 37.5154V42.0607C45.6819 43.9407 44.1619 45.474 42.2952 45.474H37.7886C35.9086 45.474 34.4019 43.9407 34.4019 42.0607V37.5154C34.4019 35.622 35.9086 34.1007 37.7886 34.1007H42.2952ZM26.9084 18.8078C28.7884 18.8078 30.2951 20.3411 30.2951 22.2224V26.7678C30.2951 28.6611 28.7884 30.1811 26.9084 30.1811H22.4018C20.5351 30.1811 19.0151 28.6611 19.0151 26.7678V22.2224C19.0151 20.3411 20.5351 18.8078 22.4018 18.8078H26.9084ZM42.2952 18.8078C44.1619 18.8078 45.6819 20.3411 45.6819 22.2224V26.7678C45.6819 28.6611 44.1619 30.1811 42.2952 30.1811H37.7886C35.9086 30.1811 34.4019 28.6611 34.4019 26.7678V22.2224C34.4019 20.3411 35.9086 18.8078 37.7886 18.8078H42.2952Z" fill="white"/>
</svg>
