<svg width="65" height="65" viewBox="0 0 65 65" fill="none" xmlns="http://www.w3.org/2000/svg">
<rect x="0.217773" y="0.141113" width="64" height="64" rx="32" fill="#2162F0"/>
<path d="M38.4382 18.8216C40.3562 18.7017 42.2476 19.3677 43.6728 20.673C44.9781 22.0982 45.6441 23.9895 45.5375 25.9209V38.3613C45.6574 40.2927 44.9781 42.184 43.6861 43.6092C42.2609 44.9146 40.3562 45.5805 38.4382 45.4607H25.9976C24.0663 45.5805 22.1749 44.9146 20.7497 43.6092C19.4443 42.184 18.7783 40.2927 18.8982 38.3613V25.9209C18.7783 23.9895 19.4443 22.0982 20.7497 20.673C22.1749 19.3677 24.0663 18.7017 25.9976 18.8216H38.4382ZM38.0919 24.9086C37.266 24.0828 35.9341 24.0828 35.1083 24.9086L34.2158 25.8143C34.0826 25.9475 34.0826 26.1739 34.2158 26.3071C34.2158 26.3071 34.242 26.3331 34.2885 26.3794L34.6161 26.7052C34.8057 26.8938 35.0422 27.1293 35.2797 27.366L36.0852 28.1711C36.2532 28.3399 36.3647 28.4531 36.3736 28.4649C36.5201 28.6247 36.6134 28.8379 36.6134 29.0776C36.6134 29.5571 36.2271 29.9567 35.7343 29.9567C35.5078 29.9567 35.2947 29.8635 35.1482 29.7169L32.9238 27.5059C32.8173 27.3993 32.6308 27.3993 32.5242 27.5059L26.1708 33.8593C25.7312 34.2989 25.4781 34.8849 25.4648 35.5109L25.3849 38.6677C25.3849 38.8408 25.4382 39.0007 25.5581 39.1205C25.6779 39.2404 25.8378 39.307 26.0109 39.307H29.141C29.7804 39.307 30.3931 39.054 30.8593 38.6011L39.8234 29.6104C40.6359 28.7846 40.6359 27.4526 39.8234 26.6401L38.0919 24.9086Z" fill="white"/>
</svg>
