<svg width="65" height="65" viewBox="0 0 65 65" fill="none" xmlns="http://www.w3.org/2000/svg">
<rect x="0.783203" y="0.141113" width="64" height="64" rx="32" fill="#2162F0"/>
<path d="M38.8039 20.1411C43.4025 20.1411 46.1165 22.7872 46.1165 27.3168H40.4751V27.3631C37.8568 27.3631 35.7343 29.4324 35.7343 31.9851C35.7343 34.5378 37.8568 36.6072 40.4751 36.6072H46.1165V37.0232C46.1165 41.495 43.4025 44.1411 38.8039 44.1411H26.7625C22.1639 44.1411 19.4499 41.495 19.4499 37.0232V27.2591C19.4499 22.7872 22.1639 20.1411 26.7625 20.1411H38.8039ZM45.121 29.3043C45.6708 29.3043 46.1165 29.7389 46.1165 30.275V33.6491C46.1101 34.1825 45.6681 34.6134 45.121 34.6197H40.5817C39.2562 34.6371 38.0972 33.7523 37.7965 32.4935C37.646 31.7122 37.8573 30.9059 38.374 30.2907C38.8906 29.6756 39.6597 29.3145 40.4751 29.3043H45.121ZM41.1151 30.8643H40.6765C40.4073 30.8612 40.148 30.9633 39.9565 31.1478C39.765 31.3324 39.6573 31.584 39.6573 31.8465C39.6572 32.3972 40.1117 32.8454 40.6765 32.8518H41.1151C41.678 32.8518 42.1343 32.4068 42.1343 31.858C42.1343 31.3092 41.678 30.8643 41.1151 30.8643ZM33.2928 25.3294H25.7669C25.2086 25.3293 24.7541 25.7672 24.7476 26.3116C24.7476 26.8623 25.2021 27.3105 25.7669 27.3168H33.2928C33.8558 27.3168 34.3121 26.8719 34.3121 26.3231C34.3121 25.7743 33.8558 25.3294 33.2928 25.3294Z" fill="white"/>
</svg>
