<svg width="40" height="40" viewBox="0 0 40 40" fill="none" xmlns="http://www.w3.org/2000/svg">
<rect width="40" height="40" rx="20" fill="#F7F8FA"/>
<path d="M22.3825 20.2852C22.3825 19.8834 22.3406 19.5737 22.282 19.264H16.4896V21.3733H19.9718C19.8295 22.269 18.9171 24.0184 16.4896 24.0184C14.397 24.0184 12.6894 22.2857 12.6894 20.1429C12.6894 18 14.397 16.2673 16.4896 16.2673C17.6866 16.2673 18.4818 16.7779 18.9338 17.2132L20.5995 15.6144C19.5281 14.6099 18.147 14.0073 16.4896 14.0073C13.0995 14.0073 10.354 16.7528 10.354 20.1429C10.354 23.5329 13.0995 26.2785 16.4896 26.2785C20.0303 26.2785 22.3825 23.7924 22.3825 20.2852ZM29.6397 19.264H27.8903V17.5145H26.1325V19.264H24.383V21.0218H26.1325V22.7712H27.8903V21.0218H29.6397V19.264Z" fill="#DE4B39"/>
</svg>
