<svg width="40" height="40" viewBox="0 0 40 40" fill="none" xmlns="http://www.w3.org/2000/svg">
<rect width="40" height="40" rx="20" fill="#F7F8FA"/>
<path d="M26.5949 16.058C26.1094 16.2673 25.5821 16.418 25.038 16.4766C25.5988 16.1417 26.0257 15.6144 26.2266 14.9866C25.7077 15.2963 25.1217 15.5223 24.5107 15.6395C24.0168 15.1122 23.3137 14.7857 22.5352 14.7857C21.0369 14.7857 19.8315 15.9994 19.8315 17.4894C19.8315 17.6987 19.8567 17.9079 19.8985 18.1088C17.6552 17.9916 15.6546 16.9202 14.3237 15.2796C14.0894 15.6814 13.9554 16.1417 13.9554 16.644C13.9554 17.5815 14.4325 18.4102 15.1608 18.8956C14.7171 18.8789 14.2986 18.7533 13.9387 18.5525C13.9387 18.5608 13.9387 18.5776 13.9387 18.5859C13.9387 19.9001 14.8678 20.9883 16.1067 21.2394C15.8807 21.298 15.6379 21.3315 15.3952 21.3315C15.2194 21.3315 15.052 21.3147 14.8846 21.2896C15.2277 22.361 16.2238 23.1395 17.4125 23.1646C16.4833 23.8929 15.3198 24.3198 14.0559 24.3198C13.8299 24.3198 13.6206 24.3114 13.403 24.2863C14.6 25.0564 16.0229 25.5 17.5548 25.5C22.5269 25.5 25.2473 21.3817 25.2473 17.8075C25.2473 17.6903 25.2473 17.5731 25.2389 17.4559C25.7663 17.0709 26.2266 16.5938 26.5949 16.058Z" fill="#55ACEE"/>
</svg>
